<?xml version="1.0" encoding="UTF-8"?>
<svg xmlns="http://www.w3.org/2000/svg" xmlns:xlink="http://www.w3.org/1999/xlink" style="width:0; height:0; visibility:hidden; position:absolute;">
  <symbol id="checkbox-circle" viewBox="0 0 80 80">
    <rect x="2.5" y="2.5" width="75" height="75" rx="37.5" fill="#027FF7"></rect>
    <rect x="2.5" y="2.5" width="75" height="75" rx="37.5" stroke="#027FF7" stroke-width="5"></rect>
    <path d="M56.6654 27.5L33.7487 50.4167L23.332 40" stroke="white" stroke-width="5" stroke-linecap="round" stroke-linejoin="round"></path>
  </symbol>
  <symbol id="email" viewBox="0 0 48 48">
    <path d="M24 1.27979L16.46 5.99979H10V9.99979L5.94 12.5798C4.78 13.2798 4 14.5398 4 15.9998V35.9998C4 37.0607 4.42143 38.0781 5.17157 38.8282C5.92172 39.5784 6.93913 39.9998 8 39.9998H40C42.22 39.9998 44 38.2198 44 35.9998V15.9998C44 14.5398 43.22 13.2798 42.06 12.5798L38 9.99979V5.99979H31.54M14 9.99979H34V19.7598L24 25.9998L14 19.7598M16 11.9998V14.9998H32V11.9998M10 14.7598V17.2598L8 15.9998M38 14.7598L40 15.9998L38 17.2598M16 16.9998V19.9998H32V16.9998H16Z" fill="#027FF7"></path>
  </symbol>
  <symbol id="heart-red-outline" viewBox="0 0 28 28">
    <path d="M22.1693 16.3333C23.9076 14.63 25.6693 12.5883 25.6693 9.91667C25.6693 8.21486 24.9932 6.58276 23.7899 5.3794C22.5865 4.17604 20.9544 3.5 19.2526 3.5C17.1993 3.5 15.7526 4.08333 14.0026 5.83333C12.2526 4.08333 10.8059 3.5 8.7526 3.5C7.0508 3.5 5.41869 4.17604 4.21534 5.3794C3.01198 6.58276 2.33594 8.21486 2.33594 9.91667C2.33594 12.6 4.08594 14.6417 5.83594 16.3333L14.0026 24.5L22.1693 16.3333Z" stroke="#E22A1F" stroke-width="2.33333" stroke-linecap="round" stroke-linejoin="round"></path>
  </symbol>
  <symbol id="info" viewBox="0 0 54 54">
    <path d="M27 49.5C39.4264 49.5 49.5 39.4264 49.5 27C49.5 14.5736 39.4264 4.5 27 4.5C14.5736 4.5 4.5 14.5736 4.5 27C4.5 39.4264 14.5736 49.5 27 49.5Z" stroke="#E22A1F" stroke-width="4" stroke-linecap="round" stroke-linejoin="round"></path>
    <path d="M27 36V25.875" stroke="#E22A1F" stroke-width="4" stroke-linecap="round" stroke-linejoin="round"></path>
    <path d="M27 18.0274V18.0049" stroke="#E22A1F" stroke-width="4" stroke-linecap="round" stroke-linejoin="round"></path>
  </symbol>
  <symbol id="ion-call" viewBox="0 0 15 15">
    <g opacity="0.8">
      <path d="M10.9965 13.5001C10.4475 13.5001 9.67627 13.3016 8.52146 12.6564C7.11718 11.8689 6.03099 11.1418 4.6343 9.74882C3.28768 8.40304 2.63236 7.53172 1.71521 5.86279C0.679082 3.97841 0.855707 2.99066 1.05314 2.5685C1.28827 2.06394 1.63533 1.76216 2.08393 1.46263C2.33872 1.29569 2.60836 1.15258 2.88943 1.03513C2.91755 1.02304 2.94371 1.0115 2.96705 1.0011C3.10627 0.93838 3.31721 0.843598 3.58439 0.944848C3.76271 1.01179 3.92189 1.14875 4.17108 1.39485C4.68211 1.89885 5.38046 3.02132 5.63808 3.57257C5.81105 3.9441 5.92552 4.18935 5.9258 4.46441C5.9258 4.78644 5.7638 5.03479 5.56721 5.30282C5.53036 5.35316 5.4938 5.40125 5.45836 5.44794C5.24433 5.72919 5.19736 5.81047 5.2283 5.9556C5.29102 6.24725 5.75874 7.11547 6.52739 7.88244C7.29605 8.64941 8.13924 9.0876 8.43202 9.15003C8.58333 9.18238 8.6663 9.13344 8.95655 8.91182C8.99818 8.88004 9.04093 8.84713 9.08564 8.81422C9.38546 8.59119 9.62227 8.43341 9.93671 8.43341H9.93839C10.2121 8.43341 10.4463 8.5521 10.8345 8.74785C11.3407 9.00322 12.4969 9.69257 13.004 10.2042C13.2507 10.4528 13.3882 10.6114 13.4554 10.7894C13.5567 11.0575 13.4613 11.2676 13.3992 11.4082C13.3888 11.4315 13.3772 11.4571 13.3651 11.4855C13.2468 11.7661 13.1028 12.0352 12.9351 12.2893C12.6361 12.7365 12.3332 13.0828 11.8275 13.3182C11.5679 13.441 11.2837 13.5032 10.9965 13.5001Z" fill="white"></path>
    </g>
  </symbol>
  <symbol id="location" viewBox="0 0 54 54">
    <path d="M45 22.5C45 37.125 27 49.5 27 49.5C27 49.5 9 37.125 9 22.5C9 17.7261 10.8964 13.1477 14.2721 9.77208C17.6477 6.39642 22.2261 4.5 27 4.5C31.7739 4.5 36.3523 6.39642 39.7279 9.77208C43.1036 13.1477 45 17.7261 45 22.5Z" stroke="#E22A1F" stroke-width="4"></path>
    <path d="M33.75 22.5C33.75 24.2902 33.0388 26.0071 31.773 27.273C30.5071 28.5388 28.7902 29.25 27 29.25C25.2098 29.25 23.4929 28.5388 22.227 27.273C20.9612 26.0071 20.25 24.2902 20.25 22.5C20.25 20.7098 20.9612 18.9929 22.227 17.727C23.4929 16.4612 25.2098 15.75 27 15.75C28.7902 15.75 30.5071 16.4612 31.773 17.727C33.0388 18.9929 33.75 20.7098 33.75 22.5Z" stroke="#E22A1F" stroke-width="4"></path>
  </symbol>
  <symbol id="solar_calendar_bold" viewBox="0 0 48 48">
    <path d="M15.5002 5C15.5002 4.60218 15.3422 4.22064 15.0609 3.93934C14.7796 3.65804 14.398 3.5 14.0002 3.5C13.6024 3.5 13.2208 3.65804 12.9395 3.93934C12.6582 4.22064 12.5002 4.60218 12.5002 5V8.16C9.6202 8.39 7.7322 8.954 6.3442 10.344C4.9542 11.732 4.3902 13.622 4.1582 16.5H43.8422C43.6102 13.62 43.0462 11.732 41.6562 10.344C40.2682 8.954 38.3782 8.39 35.5002 8.158V5C35.5002 4.60218 35.3422 4.22064 35.0609 3.93934C34.7796 3.65804 34.398 3.5 34.0002 3.5C33.6024 3.5 33.2208 3.65804 32.9395 3.93934C32.6582 4.22064 32.5002 4.60218 32.5002 5V8.026C31.1702 8 29.6782 8 28.0002 8H20.0002C18.3222 8 16.8302 8 15.5002 8.026V5Z" fill="#027FF7"></path>
    <path fill-rule="evenodd" clip-rule="evenodd" d="M4 24C4 22.322 4 20.83 4.026 19.5H43.974C44 20.83 44 22.322 44 24V28C44 35.542 44 39.314 41.656 41.656C39.312 43.998 35.542 44 28 44H20C12.458 44 8.686 44 6.344 41.656C4.002 39.312 4 35.542 4 28V24ZM34 28C34.5304 28 35.0391 27.7893 35.4142 27.4142C35.7893 27.0391 36 26.5304 36 26C36 25.4696 35.7893 24.9609 35.4142 24.5858C35.0391 24.2107 34.5304 24 34 24C33.4696 24 32.9609 24.2107 32.5858 24.5858C32.2107 24.9609 32 25.4696 32 26C32 26.5304 32.2107 27.0391 32.5858 27.4142C32.9609 27.7893 33.4696 28 34 28ZM34 36C34.5304 36 35.0391 35.7893 35.4142 35.4142C35.7893 35.0391 36 34.5304 36 34C36 33.4696 35.7893 32.9609 35.4142 32.5858C35.0391 32.2107 34.5304 32 34 32C33.4696 32 32.9609 32.2107 32.5858 32.5858C32.2107 32.9609 32 33.4696 32 34C32 34.5304 32.2107 35.0391 32.5858 35.4142C32.9609 35.7893 33.4696 36 34 36ZM26 26C26 26.5304 25.7893 27.0391 25.4142 27.4142C25.0391 27.7893 24.5304 28 24 28C23.4696 28 22.9609 27.7893 22.5858 27.4142C22.2107 27.0391 22 26.5304 22 26C22 25.4696 22.2107 24.9609 22.5858 24.5858C22.9609 24.2107 23.4696 24 24 24C24.5304 24 25.0391 24.2107 25.4142 24.5858C25.7893 24.9609 26 25.4696 26 26ZM26 34C26 34.5304 25.7893 35.0391 25.4142 35.4142C25.0391 35.7893 24.5304 36 24 36C23.4696 36 22.9609 35.7893 22.5858 35.4142C22.2107 35.0391 22 34.5304 22 34C22 33.4696 22.2107 32.9609 22.5858 32.5858C22.9609 32.2107 23.4696 32 24 32C24.5304 32 25.0391 32.2107 25.4142 32.5858C25.7893 32.9609 26 33.4696 26 34ZM14 28C14.5304 28 15.0391 27.7893 15.4142 27.4142C15.7893 27.0391 16 26.5304 16 26C16 25.4696 15.7893 24.9609 15.4142 24.5858C15.0391 24.2107 14.5304 24 14 24C13.4696 24 12.9609 24.2107 12.5858 24.5858C12.2107 24.9609 12 25.4696 12 26C12 26.5304 12.2107 27.0391 12.5858 27.4142C12.9609 27.7893 13.4696 28 14 28ZM14 36C14.5304 36 15.0391 35.7893 15.4142 35.4142C15.7893 35.0391 16 34.5304 16 34C16 33.4696 15.7893 32.9609 15.4142 32.5858C15.0391 32.2107 14.5304 32 14 32C13.4696 32 12.9609 32.2107 12.5858 32.5858C12.2107 32.9609 12 33.4696 12 34C12 34.5304 12.2107 35.0391 12.5858 35.4142C12.9609 35.7893 13.4696 36 14 36Z" fill="#027FF7"></path>
  </symbol>
  <symbol id="support" viewBox="0 0 54 54">
    <path d="M22.8495 33.2393L22.8293 33.192C22.5251 33.1089 22.2234 33.0166 21.9248 32.9153L21.9023 32.9063C18.794 31.8428 16.0961 29.8341 14.1862 27.1612C12.2762 24.4883 11.2499 21.2852 11.2508 18C11.2498 13.9683 12.7949 10.0896 15.568 7.16305C18.3411 4.23644 22.131 2.48474 26.1569 2.26873C30.1829 2.05273 34.1384 3.38887 37.2087 6.00195C40.2791 8.61503 42.2304 12.3061 42.6608 16.3148C42.7598 17.2418 41.9948 18 41.0633 18C40.1318 18 39.387 17.2395 39.2633 16.317C38.964 14.1396 38.0903 12.0812 36.7321 10.3533C35.3738 8.62536 33.5799 7.29028 31.5348 6.48526C29.4896 5.68024 27.267 5.43431 25.0954 5.77274C22.9237 6.11118 20.8814 7.02178 19.1782 8.41095C17.475 9.80012 16.1725 11.6177 15.4044 13.677C14.6363 15.7363 14.4305 17.963 14.808 20.1282C15.1855 22.2934 16.1327 24.319 17.5523 25.9969C18.9719 27.6748 20.8127 28.9444 22.8855 29.6753C23.3031 28.7315 24.0324 27.9599 24.9511 27.4898C25.8699 27.0197 26.9224 26.8797 27.9321 27.0933C28.9418 27.3069 29.8474 27.8611 30.4971 28.663C31.1469 29.4649 31.5012 30.4657 31.5008 31.4978C31.5008 32.8433 30.9113 34.0493 29.9775 34.8728C29.1557 35.5986 28.0972 35.9995 27.0008 36C26.1131 36.0032 25.2445 35.7424 24.5054 35.2509C23.7662 34.7593 23.1899 34.0591 22.8495 33.2393ZM17.994 34.875C16.3357 33.9889 14.8171 32.863 13.4873 31.5338C12.2546 31.6772 11.1175 32.2684 10.2921 33.195C9.4666 34.1217 9.01028 35.3193 9.00977 36.5603V37.8608C9.00977 39.8678 9.72527 41.8118 11.0303 43.3395C14.5538 47.466 19.9223 49.5045 27.0008 49.5045C34.0793 49.5045 39.45 47.466 42.9803 43.3395C44.2883 41.8112 45.0073 39.8657 45.0075 37.854V36.5603C45.0075 35.2184 44.4748 33.9314 43.5263 32.9821C42.5779 32.0329 41.2914 31.499 39.9495 31.4978H34.8758C34.8758 32.7083 34.6058 33.8513 34.1175 34.8728H39.9495C40.3963 34.874 40.8244 35.0523 41.1399 35.3686C41.4553 35.685 41.6325 36.1135 41.6325 36.5603V37.854C41.6329 39.061 41.202 40.2285 40.4175 41.1458C37.5893 44.4488 33.1635 46.1273 27.0008 46.1273C20.838 46.1273 16.4168 44.4488 13.5975 41.148C12.8136 40.2313 12.3827 39.0648 12.3825 37.8585V36.5603C12.3825 36.1127 12.5603 35.6835 12.8768 35.367C13.1932 35.0506 13.6225 34.8728 14.07 34.8728L17.994 34.875ZM18.0008 18C18.0012 16.4476 18.4031 14.9218 19.1675 13.5706C19.932 12.2195 21.0329 11.0891 22.3633 10.2892C23.6938 9.48926 25.2085 9.0471 26.7603 9.00562C28.3122 8.96415 29.8483 9.32478 31.2196 10.0525C32.5909 10.7802 33.7506 11.8502 34.5861 13.1586C35.4216 14.4669 35.9045 15.9692 35.9878 17.5193C36.0711 19.0695 35.7521 20.6148 35.0616 22.0052C34.3712 23.3956 33.3329 24.5838 32.0475 25.4543C30.6314 24.2723 28.8453 23.6249 27.0008 23.625C28.4926 23.625 29.9233 23.0324 30.9782 21.9775C32.0331 20.9226 32.6258 19.4919 32.6258 18C32.6258 16.5082 32.0331 15.0774 30.9782 14.0226C29.9233 12.9677 28.4926 12.375 27.0008 12.375C25.5089 12.375 24.0782 12.9677 23.0233 14.0226C21.9684 15.0774 21.3758 16.5082 21.3758 18C21.3758 19.4919 21.9684 20.9226 23.0233 21.9775C24.0782 23.0324 25.5089 23.625 27.0008 23.625C25.0793 23.625 23.3198 24.3135 21.9563 25.4543C20.7365 24.6311 19.7378 23.5207 19.0481 22.2209C18.3583 20.921 17.9987 19.4715 18.0008 18Z" fill="#E22A1F"></path>
  </symbol>
</svg>
