<svg width="16" height="16" viewBox="0 0 16 16" fill="none" xmlns="http://www.w3.org/2000/svg">
<path d="M5.83325 6.66667C5.83325 6.09203 6.06153 5.54093 6.46785 5.1346C6.87418 4.72827 7.42528 4.5 7.99992 4.5C8.57455 4.5 9.12565 4.72827 9.53198 5.1346C9.93831 5.54093 10.1666 6.09203 10.1666 6.66667C10.1666 7.2413 9.93831 7.7924 9.53198 8.19873C9.12565 8.60506 8.57455 8.83333 7.99992 8.83333C7.42528 8.83333 6.87418 8.60506 6.46785 8.19873C6.06153 7.7924 5.83325 7.2413 5.83325 6.66667Z" fill="#2E333C"/>
<path fill-rule="evenodd" clip-rule="evenodd" d="M2.51605 5.918C2.62694 4.57783 3.23753 3.32831 4.22669 2.41732C5.21585 1.50633 6.5113 1.00044 7.85605 1H8.14405C9.48879 1.00044 10.7842 1.50633 11.7734 2.41732C12.7626 3.32831 13.3732 4.57783 13.484 5.918C13.6071 7.41427 13.1452 8.89997 12.1954 10.0627L9.00005 13.9707C8.87894 14.1189 8.72639 14.2384 8.55344 14.3204C8.38049 14.4024 8.19147 14.445 8.00005 14.445C7.80863 14.445 7.61961 14.4024 7.44666 14.3204C7.27371 14.2384 7.12116 14.1189 7.00005 13.9707L3.80538 10.0627C2.85536 8.90006 2.39318 7.41436 2.51605 5.918ZM8.00005 3.5C7.1602 3.5 6.35474 3.83363 5.76088 4.4275C5.16701 5.02136 4.83338 5.82681 4.83338 6.66667C4.83338 7.50652 5.16701 8.31197 5.76088 8.90584C6.35474 9.4997 7.1602 9.83333 8.00005 9.83333C8.8399 9.83333 9.64536 9.4997 10.2392 8.90584C10.8331 8.31197 11.1667 7.50652 11.1667 6.66667C11.1667 5.82681 10.8331 5.02136 10.2392 4.4275C9.64536 3.83363 8.8399 3.5 8.00005 3.5Z" fill="#2E333C"/>
</svg>
