<svg width="43" height="54" viewBox="0 0 43 54" fill="none" xmlns="http://www.w3.org/2000/svg">
<path d="M37.6097 53.6663C39.0242 53.6663 40.3807 53.1044 41.3809 52.1042C42.3811 51.104 42.943 49.7475 42.943 48.333V16.333L26.943 0.333008H5.6097C4.19521 0.333008 2.83866 0.894911 1.83846 1.8951C0.83827 2.8953 0.276367 4.25185 0.276367 5.66634V48.333C0.276367 49.7475 0.83827 51.104 1.83846 52.1042C2.83866 53.1044 4.19521 53.6663 5.6097 53.6663H37.6097ZM24.2764 5.66634L37.6097 18.9997H24.2764V5.66634ZM8.27637 16.333H16.2764V21.6663H8.27637V16.333ZM8.27637 26.9997H34.943V32.333H8.27637V26.9997ZM8.27637 37.6663H34.943V42.9997H8.27637V37.6663Z" fill="#027FF7"/>
</svg>
