<svg width="65" height="65" viewBox="0 0 65 65" fill="none" xmlns="http://www.w3.org/2000/svg">
<g clip-path="url(#clip0_433_16260)">
<path d="M33.9729 62.5215L33.9436 62.5268L33.7542 62.6202L33.7009 62.6308L33.6636 62.6202L33.4742 62.5268C33.4458 62.5179 33.4245 62.5224 33.4102 62.5402L33.3996 62.5668L33.3542 63.7082L33.3676 63.7615L33.3942 63.7962L33.6716 63.9935L33.7116 64.0042L33.7436 63.9935L34.0209 63.7962L34.0529 63.7535L34.0636 63.7082L34.0182 62.5695C34.0111 62.541 33.996 62.525 33.9729 62.5215ZM34.6796 62.2202L34.6449 62.2255L34.1516 62.4735L34.1249 62.5002L34.1169 62.5295L34.1649 63.6762L34.1782 63.7082L34.1996 63.7268L34.7356 63.9748C34.7693 63.9837 34.7951 63.9766 34.8129 63.9535L34.8236 63.9162L34.7329 62.2788C34.724 62.2468 34.7062 62.2273 34.6796 62.2202ZM32.7729 62.2255C32.7612 62.2184 32.7471 62.2161 32.7337 62.219C32.7203 62.222 32.7085 62.2301 32.7009 62.2415L32.6849 62.2788L32.5942 63.9162C32.596 63.9482 32.6111 63.9695 32.6396 63.9802L32.6796 63.9748L33.2156 63.7268L33.2422 63.7055L33.2529 63.6762L33.2982 62.5295L33.2902 62.4975L33.2636 62.4708L32.7729 62.2255Z" fill="#027FF7"/>
<path d="M43.0584 8.5C45.099 8.49989 47.0625 9.27953 48.5471 10.6794C50.0318 12.0793 50.9254 13.9936 51.0451 16.0307L51.0584 16.5V43.1667H53.0584C54.7838 43.1667 56.2051 44.4787 56.3758 46.1587L56.3918 46.5V51.1667C56.3919 53.2072 55.6122 55.1707 54.2123 56.6554C52.8125 58.14 50.8981 59.0336 48.8611 59.1533L48.3918 59.1667H21.7251C19.6845 59.1668 17.7211 58.3871 16.2364 56.9872C14.7517 55.5874 13.8581 53.673 13.7384 51.636L13.7251 51.1667V24.5H9.05843C8.23321 24.5004 7.43718 24.1946 6.82439 23.6419C6.2116 23.0892 5.8256 22.3289 5.7411 21.508L5.7251 21.1667V16.5C5.72498 14.4594 6.50463 12.496 7.90452 11.0113C9.30441 9.52665 11.2187 8.63305 13.2558 8.51333L13.7251 8.5H43.0584ZM51.0584 48.5H27.0584V51.1667C27.0584 52.1 26.8984 52.9987 26.6051 53.8333H48.3918C49.099 53.8333 49.7773 53.5524 50.2774 53.0523C50.7775 52.5522 51.0584 51.8739 51.0584 51.1667V48.5ZM32.3918 32.5H27.0584C26.3788 32.5008 25.725 32.761 25.2308 33.2276C24.7366 33.6942 24.4391 34.3319 24.3993 35.0104C24.3595 35.6889 24.5802 36.357 25.0165 36.8782C25.4527 37.3994 26.0715 37.7344 26.7464 37.8147L27.0584 37.8333H32.3918C33.0714 37.8326 33.7252 37.5723 34.2194 37.1057C34.7136 36.6392 35.0111 36.0015 35.0509 35.3229C35.0907 34.6444 34.87 33.9763 34.4337 33.4551C33.9975 32.9339 33.3787 32.5989 32.7038 32.5187L32.3918 32.5ZM37.7251 21.8333H27.0584C26.3512 21.8333 25.6729 22.1143 25.1728 22.6144C24.6727 23.1145 24.3918 23.7928 24.3918 24.5C24.3918 25.2072 24.6727 25.8855 25.1728 26.3856C25.6729 26.8857 26.3512 27.1667 27.0584 27.1667H37.7251C38.4323 27.1667 39.1106 26.8857 39.6107 26.3856C40.1108 25.8855 40.3918 25.2072 40.3918 24.5C40.3918 23.7928 40.1108 23.1145 39.6107 22.6144C39.1106 22.1143 38.4323 21.8333 37.7251 21.8333ZM13.7251 13.8333C13.0179 13.8333 12.3396 14.1143 11.8395 14.6144C11.3394 15.1145 11.0584 15.7928 11.0584 16.5V19.1667H13.7251V13.8333Z" fill="#027FF7"/>
</g>
<defs>
<clipPath id="clip0_433_16260">
<rect width="64" height="64" fill="white" transform="translate(0.391602 0.5)"/>
</clipPath>
</defs>
</svg>
