<svg width="18" height="18" viewBox="0 0 18 18" fill="none" xmlns="http://www.w3.org/2000/svg">
<path fill-rule="evenodd" clip-rule="evenodd" d="M12.75 6C12.75 8.07113 11.0711 9.75 9 9.75C6.92887 9.75 5.25 8.07113 5.25 6C5.25 3.92888 6.92887 2.25 9 2.25C11.0711 2.25 12.75 3.92888 12.75 6ZM12 6C12 6.79565 11.6839 7.55871 11.1213 8.12132C10.5587 8.68393 9.79565 9 9 9C8.20435 9 7.44129 8.68393 6.87868 8.12132C6.31607 7.55871 6 6.79565 6 6C6 5.20435 6.31607 4.44129 6.87868 3.87868C7.44129 3.31607 8.20435 3 9 3C9.79565 3 10.5587 3.31607 11.1213 3.87868C11.6839 4.44129 12 5.20435 12 6ZM6.71775 10.8206L6.72187 10.8289L6.75 10.884H11.1559C11.2417 10.7213 11.4364 10.4618 11.625 10.5049C12.0487 10.6013 12.4755 10.7355 12.8854 10.9009L12.8978 10.8949L12.9019 10.9031L12.9049 10.9088C14.448 11.5358 15.75 12.5985 15.75 13.7137V15.75H2.25V13.7137C2.25 12.2981 4.3485 10.9661 6.375 10.5049C6.54038 10.4674 6.63862 10.6624 6.71775 10.8206ZM12.264 11.4686C12.1032 11.4122 11.9404 11.3613 11.7761 11.316L11.6089 11.634H6.29737L6.14212 11.3389L6.00712 11.3794C6.00437 11.4039 6.00238 11.4319 6.00113 11.4634C5.99625 11.5928 6.006 11.7461 6.02737 11.9021C6.04917 12.0649 6.08429 12.2255 6.13238 12.3825C6.3958 12.4137 6.63972 12.537 6.82107 12.7306C7.00241 12.9242 7.10952 13.1757 7.12346 13.4406C7.1374 13.7055 7.05729 13.9668 6.89727 14.1783C6.73725 14.3899 6.50762 14.5381 6.24893 14.5968C5.99023 14.6555 5.71912 14.6209 5.48347 14.4991C5.24782 14.3773 5.06278 14.1761 4.96105 13.9312C4.85931 13.6862 4.84741 13.4131 4.92745 13.1602C5.0075 12.9073 5.17433 12.6908 5.3985 12.549L5.3955 12.5385C5.34542 12.3632 5.3082 12.1845 5.28412 12.0037C5.26822 11.8883 5.25771 11.7722 5.25262 11.6558C4.78912 11.8538 4.35675 12.093 3.9945 12.357C3.27375 12.8835 3 13.3755 3 13.7137V15H15V13.7137C15 13.3751 14.7262 12.8831 14.0055 12.3574C13.6912 12.1315 13.3565 11.9354 13.0057 11.7716C12.9904 11.9749 12.9593 12.1766 12.9127 12.375H13.125C13.1946 12.375 13.2629 12.3945 13.3221 12.4311C13.3813 12.4677 13.4291 12.5201 13.4603 12.5824L13.8353 13.3324C13.8615 13.3845 13.875 13.4419 13.875 13.5V14.25C13.875 14.3495 13.8355 14.4448 13.7652 14.5152C13.6948 14.5855 13.5995 14.625 13.5 14.625H12.75V13.875H13.125V13.5885L12.8932 13.125H11.8568L11.625 13.5885V13.875H12V14.625H11.25C11.1505 14.625 11.0552 14.5855 10.9848 14.5152C10.9145 14.4448 10.875 14.3495 10.875 14.25V13.5C10.875 13.4419 10.8885 13.3845 10.9148 13.3324L11.2898 12.5824C11.3209 12.5201 11.3687 12.4677 11.4279 12.4311C11.4871 12.3945 11.5554 12.375 11.625 12.375H12.1357L12.1496 12.3285C12.1849 12.2081 12.2164 12.0585 12.2377 11.9025C12.2587 11.748 12.2685 11.5969 12.264 11.4686ZM6.375 13.5C6.375 13.7153 6.20175 13.8806 6 13.8806C5.79825 13.8806 5.625 13.7156 5.625 13.5C5.625 13.2847 5.79825 13.1194 6 13.1194C6.20175 13.1194 6.375 13.2844 6.375 13.5Z" fill="#595959"/>
</svg>
