<svg width="15" height="16" viewBox="0 0 15 16" fill="none" xmlns="http://www.w3.org/2000/svg">
<g opacity="0.8">
<path d="M11.2967 14.2999C10.7477 14.2999 9.97656 14.1014 8.82175 13.4562C7.41747 12.6687 6.33128 11.9417 4.93459 10.5486C3.58797 9.20284 2.93266 8.33153 2.0155 6.66259C0.979375 4.77822 1.156 3.79047 1.35344 3.36831C1.58856 2.86375 1.93562 2.56197 2.38422 2.26243C2.63902 2.09549 2.90866 1.95239 3.18972 1.83493C3.21784 1.82284 3.244 1.81131 3.26734 1.8009C3.40656 1.73818 3.6175 1.6434 3.88469 1.74465C4.063 1.81159 4.22219 1.94856 4.47137 2.19465C4.98241 2.69865 5.68075 3.82112 5.93837 4.37237C6.11134 4.7439 6.22581 4.98915 6.22609 5.26422C6.22609 5.58625 6.06409 5.83459 5.8675 6.10262C5.83066 6.15297 5.79409 6.20106 5.75866 6.24775C5.54462 6.529 5.49766 6.61028 5.52859 6.7554C5.59131 7.04706 6.05903 7.91528 6.82769 8.68225C7.59634 9.44922 8.43953 9.8874 8.73231 9.94984C8.88362 9.98218 8.96659 9.93325 9.25684 9.71162C9.29847 9.67984 9.34122 9.64693 9.38594 9.61403C9.68575 9.391 9.92256 9.23322 10.237 9.23322H10.2387C10.5123 9.23322 10.7466 9.3519 11.1347 9.54765C11.641 9.80303 12.7972 10.4924 13.3043 11.004C13.551 11.2526 13.6885 11.4112 13.7557 11.5892C13.857 11.8573 13.7616 12.0674 13.6995 12.208C13.6891 12.2313 13.6775 12.2569 13.6654 12.2853C13.5471 12.5659 13.4031 12.835 13.2354 13.0892C12.9364 13.5363 12.6335 13.8826 12.1278 14.118C11.8682 14.2408 11.584 14.303 11.2967 14.2999Z" fill="white"/>
</g>
</svg>
