<svg width="24" height="24" viewBox="0 0 24 24" fill="none" xmlns="http://www.w3.org/2000/svg">
<path d="M16 3H6.85714M14.2857 6.42857H8.57143M4 12.1429H6.28571M5.14286 11V13.2857M14.2857 17.2857C14.2857 18.0435 13.9847 18.7702 13.4489 19.306C12.9131 19.8418 12.1863 20.1429 11.4286 20.1429C10.6708 20.1429 9.94408 19.8418 9.40827 19.306C8.87245 18.7702 8.57143 18.0435 8.57143 17.2857V3H14.2857V17.2857ZM18.8571 7.57143C19.1602 7.57143 19.4509 7.45102 19.6653 7.23669C19.8796 7.02237 20 6.73168 20 6.42857C20 6.12547 19.8796 5.83478 19.6653 5.62045C19.4509 5.40612 19.1602 5.28571 18.8571 5.28571C18.554 5.28571 18.2633 5.40612 18.049 5.62045C17.8347 5.83478 17.7143 6.12547 17.7143 6.42857C17.7143 6.73168 17.8347 7.02237 18.049 7.23669C18.2633 7.45102 18.554 7.57143 18.8571 7.57143Z" stroke="#2E333C" stroke-width="1.5" stroke-linecap="round" stroke-linejoin="round"/>
<path d="M12.2861 9.2853C12.2104 9.2853 12.1377 9.25519 12.0841 9.20161C12.0305 9.14803 12.0004 9.07536 12.0004 8.99958C12.0004 8.92381 12.0305 8.85113 12.0841 8.79755C12.1377 8.74397 12.2104 8.71387 12.2861 8.71387M12.2861 9.2853C12.3619 9.2853 12.4346 9.25519 12.4882 9.20161C12.5417 9.14803 12.5718 9.07536 12.5718 8.99958C12.5718 8.92381 12.5417 8.85113 12.4882 8.79755C12.4346 8.74397 12.3619 8.71387 12.2861 8.71387M10.5718 12.7139C10.4961 12.7139 10.4234 12.6838 10.3698 12.6302C10.3162 12.5766 10.2861 12.5039 10.2861 12.4282C10.2861 12.3524 10.3162 12.2797 10.3698 12.2261C10.4234 12.1725 10.4961 12.1424 10.5718 12.1424M10.5718 12.7139C10.6476 12.7139 10.7203 12.6838 10.7739 12.6302C10.8275 12.5766 10.8576 12.5039 10.8576 12.4282C10.8576 12.3524 10.8275 12.2797 10.7739 12.2261C10.7203 12.1725 10.6476 12.1424 10.5718 12.1424M11.7147 16.1424C11.6389 16.1424 11.5663 16.1123 11.5127 16.0588C11.4591 16.0052 11.429 15.9325 11.429 15.8567C11.429 15.7809 11.4591 15.7083 11.5127 15.6547C11.5663 15.6011 11.6389 15.571 11.7147 15.571M11.7147 16.1424C11.7905 16.1424 11.8632 16.1123 11.9167 16.0588C11.9703 16.0052 12.0004 15.9325 12.0004 15.8567C12.0004 15.7809 11.9703 15.7083 11.9167 15.6547C11.8632 15.6011 11.7905 15.571 11.7147 15.571" stroke="#2E333C" stroke-width="1.5"/>
</svg>
