<svg width="16" height="16" viewBox="0 0 16 16" fill="none" xmlns="http://www.w3.org/2000/svg">
<path d="M2.66659 13.3333C2.29992 13.3333 1.98614 13.2028 1.72525 12.942C1.46436 12.6811 1.3337 12.3671 1.33325 12V3.99996C1.33325 3.63329 1.46392 3.31951 1.72525 3.05863C1.98659 2.79774 2.30036 2.66707 2.66659 2.66663H13.3333C13.6999 2.66663 14.0139 2.79729 14.2753 3.05863C14.5366 3.31996 14.667 3.63374 14.6666 3.99996V12C14.6666 12.3666 14.5361 12.6806 14.2753 12.942C14.0144 13.2033 13.7004 13.3337 13.3333 13.3333H2.66659ZM7.99992 8.54996C8.05547 8.54996 8.11392 8.54151 8.17525 8.52463C8.23659 8.50774 8.29481 8.48285 8.34992 8.44996L13.0666 5.49996C13.1555 5.4444 13.2221 5.37507 13.2666 5.29196C13.311 5.20885 13.3333 5.11707 13.3333 5.01663C13.3333 4.7944 13.2388 4.62774 13.0499 4.51663C12.861 4.40551 12.6666 4.41107 12.4666 4.53329L7.99992 7.33329L3.53325 4.53329C3.33325 4.41107 3.13881 4.4084 2.94992 4.52529C2.76103 4.64218 2.66659 4.80596 2.66659 5.01663C2.66659 5.12774 2.68881 5.22507 2.73325 5.30863C2.7777 5.39218 2.84436 5.45596 2.93325 5.49996L7.64992 8.44996C7.70547 8.48329 7.76392 8.5084 7.82525 8.52529C7.88659 8.54218 7.94481 8.5504 7.99992 8.54996Z" fill="#2E333C"/>
</svg>
