<svg width="48" height="36" viewBox="0 0 48 36" fill="none" xmlns="http://www.w3.org/2000/svg">
<path d="M29.625 21.9375C29.625 15.6042 31.1458 10.6458 34.1875 7.0625C37.2708 3.47917 41.5833 1.125 47.125 0V6.5C42.9167 7.79167 40.0833 10.125 38.625 13.5C37.7917 15.2917 37.4583 17.0208 37.625 18.6875H47.4375V35.125H29.625V21.9375ZM0 21.9375C0 15.6875 1.47917 10.75 4.4375 7.125C7.4375 3.5 11.7917 1.125 17.5 0V6.5C13.25 7.83333 10.3958 10.125 8.9375 13.375C8.1875 15.0833 7.875 16.8542 8 18.6875H17.8125V35.125H0V21.9375Z" fill="#E22A1F"/>
</svg>
