<svg width="138" height="30" viewBox="0 0 138 30" fill="none" xmlns="http://www.w3.org/2000/svg">
<mask id="mask0_4065_6196" style="mask-type:luminance" maskUnits="userSpaceOnUse" x="0" y="0" width="138" height="30">
<path d="M137.333 0H0V29.3333H137.333V0Z" fill="white"/>
</mask>
<g mask="url(#mask0_4065_6196)">
<path d="M17.5853 22.6119L17.5645 11.0911L11.8561 20.6953H10.8145L5.10612 11.1536V22.6119H2.93945V6.79944H4.79362L11.377 17.9244L17.877 6.79944H19.7311L19.752 22.6119H17.5853Z" fill="#CD2028"/>
<path d="M31.9492 22.7994C29.8346 22.7994 28.1888 22.1953 27.0117 20.9869C25.8451 19.7786 25.2617 18.0494 25.2617 15.7994V6.79944H27.5326V15.6953C27.5326 19.0859 29.0117 20.7786 31.9701 20.7786C33.4128 20.7786 34.5169 20.3619 35.2826 19.5286C36.0586 18.6953 36.4492 17.4192 36.4492 15.6953V6.79944H38.6367V15.7994C38.6367 18.0651 38.043 19.7994 36.8659 21.0078C35.6992 22.2057 34.0586 22.7994 31.9492 22.7994Z" fill="#CD2028"/>
<path d="M57.7552 6.79944V22.6119H55.901L46.4219 10.8203V22.6119H44.1719V6.79944H46.026L55.5052 18.5911V6.79944H57.7552Z" fill="#CD2028"/>
<path d="M66.5339 8.77861H61.1172V6.79944H74.2005V8.77861H68.7839V22.6119H66.5339V8.77861Z" fill="#CD2028"/>
<path d="M89.0267 20.6536V22.6119H77.5684V6.79944H88.7142V8.77861H79.8184V13.6328H87.7559V15.5494H79.8184V20.6536H89.0267Z" fill="#CD2028"/>
<path d="M107.183 6.79944V22.6119H105.329L95.8496 10.8203V22.6119H93.5996V6.79944H95.4538L104.933 18.5911V6.79944H107.183Z" fill="#CD2028"/>
<path d="M112.838 6.79944H115.088V22.6119H112.838V6.79944Z" fill="#CD2028"/>
<path d="M130.804 18.6536H122.408L120.679 22.6119H118.346L125.512 6.79944H127.742L134.929 22.6119H132.554L130.804 18.6536ZM130.012 16.8619L126.617 9.11194L123.2 16.8619H130.012Z" fill="#CD2028"/>
</g>
</svg>
