<svg width="64" height="64" viewBox="0 0 64 64" fill="none" xmlns="http://www.w3.org/2000/svg">
<path d="M48.0013 58.6666C49.4158 58.6666 50.7723 58.1047 51.7725 57.1045C52.7727 56.1043 53.3346 54.7477 53.3346 53.3332V21.3333L37.3346 5.33325H16.0013C14.5868 5.33325 13.2303 5.89515 12.2301 6.89535C11.2299 7.89554 10.668 9.2521 10.668 10.6666V53.3332C10.668 54.7477 11.2299 56.1043 12.2301 57.1045C13.2303 58.1047 14.5868 58.6666 16.0013 58.6666H48.0013ZM34.668 10.6666L48.0013 23.9999H34.668V10.6666ZM18.668 21.3333H26.668V26.6666H18.668V21.3333ZM18.668 31.9999H45.3346V37.3333H18.668V31.9999ZM18.668 42.6666H45.3346V47.9999H18.668V42.6666Z" fill="#027FF7"/>
</svg>
