<svg width="48" height="48" viewBox="0 0 48 48" fill="none" xmlns="http://www.w3.org/2000/svg">
<path d="M24 1.27979L16.46 5.99979H10V9.99979L5.94 12.5798C4.78 13.2798 4 14.5398 4 15.9998V35.9998C4 37.0607 4.42143 38.0781 5.17157 38.8282C5.92172 39.5784 6.93913 39.9998 8 39.9998H40C42.22 39.9998 44 38.2198 44 35.9998V15.9998C44 14.5398 43.22 13.2798 42.06 12.5798L38 9.99979V5.99979H31.54M14 9.99979H34V19.7598L24 25.9998L14 19.7598M16 11.9998V14.9998H32V11.9998M10 14.7598V17.2598L8 15.9998M38 14.7598L40 15.9998L38 17.2598M16 16.9998V19.9998H32V16.9998H16Z" fill="#027FF7"/>
</svg>
