<svg width="54" height="54" viewBox="0 0 54 54" fill="none" xmlns="http://www.w3.org/2000/svg">
<path d="M22.8495 33.2393L22.8293 33.192C22.5251 33.1089 22.2234 33.0166 21.9248 32.9153L21.9023 32.9063C18.794 31.8428 16.0961 29.8341 14.1862 27.1612C12.2762 24.4883 11.2499 21.2852 11.2508 18C11.2498 13.9683 12.7949 10.0896 15.568 7.16305C18.3411 4.23644 22.131 2.48474 26.1569 2.26873C30.1829 2.05273 34.1384 3.38887 37.2087 6.00195C40.2791 8.61503 42.2304 12.3061 42.6608 16.3148C42.7598 17.2418 41.9948 18 41.0633 18C40.1318 18 39.387 17.2395 39.2633 16.317C38.964 14.1396 38.0903 12.0812 36.7321 10.3533C35.3738 8.62536 33.5799 7.29028 31.5348 6.48526C29.4896 5.68024 27.267 5.43431 25.0954 5.77274C22.9237 6.11118 20.8814 7.02178 19.1782 8.41095C17.475 9.80012 16.1725 11.6177 15.4044 13.677C14.6363 15.7363 14.4305 17.963 14.808 20.1282C15.1855 22.2934 16.1327 24.319 17.5523 25.9969C18.9719 27.6748 20.8127 28.9444 22.8855 29.6753C23.3031 28.7315 24.0324 27.9599 24.9511 27.4898C25.8699 27.0197 26.9224 26.8797 27.9321 27.0933C28.9418 27.3069 29.8474 27.8611 30.4971 28.663C31.1469 29.4649 31.5012 30.4657 31.5008 31.4978C31.5008 32.8433 30.9113 34.0493 29.9775 34.8728C29.1557 35.5986 28.0972 35.9995 27.0008 36C26.1131 36.0032 25.2445 35.7424 24.5054 35.2509C23.7662 34.7593 23.1899 34.0591 22.8495 33.2393ZM17.994 34.875C16.3357 33.9889 14.8171 32.863 13.4873 31.5338C12.2546 31.6772 11.1175 32.2684 10.2921 33.195C9.4666 34.1217 9.01028 35.3193 9.00977 36.5603V37.8608C9.00977 39.8678 9.72527 41.8118 11.0303 43.3395C14.5538 47.466 19.9223 49.5045 27.0008 49.5045C34.0793 49.5045 39.45 47.466 42.9803 43.3395C44.2883 41.8112 45.0073 39.8657 45.0075 37.854V36.5603C45.0075 35.2184 44.4748 33.9314 43.5263 32.9821C42.5779 32.0329 41.2914 31.499 39.9495 31.4978H34.8758C34.8758 32.7083 34.6058 33.8513 34.1175 34.8728H39.9495C40.3963 34.874 40.8244 35.0523 41.1399 35.3686C41.4553 35.685 41.6325 36.1135 41.6325 36.5603V37.854C41.6329 39.061 41.202 40.2285 40.4175 41.1458C37.5893 44.4488 33.1635 46.1273 27.0008 46.1273C20.838 46.1273 16.4168 44.4488 13.5975 41.148C12.8136 40.2313 12.3827 39.0648 12.3825 37.8585V36.5603C12.3825 36.1127 12.5603 35.6835 12.8768 35.367C13.1932 35.0506 13.6225 34.8728 14.07 34.8728L17.994 34.875ZM18.0008 18C18.0012 16.4476 18.4031 14.9218 19.1675 13.5706C19.932 12.2195 21.0329 11.0891 22.3633 10.2892C23.6938 9.48926 25.2085 9.0471 26.7603 9.00562C28.3122 8.96415 29.8483 9.32478 31.2196 10.0525C32.5909 10.7802 33.7506 11.8502 34.5861 13.1586C35.4216 14.4669 35.9045 15.9692 35.9878 17.5193C36.0711 19.0695 35.7521 20.6148 35.0616 22.0052C34.3712 23.3956 33.3329 24.5838 32.0475 25.4543C30.6314 24.2723 28.8453 23.6249 27.0008 23.625C28.4926 23.625 29.9233 23.0324 30.9782 21.9775C32.0331 20.9226 32.6258 19.4919 32.6258 18C32.6258 16.5082 32.0331 15.0774 30.9782 14.0226C29.9233 12.9677 28.4926 12.375 27.0008 12.375C25.5089 12.375 24.0782 12.9677 23.0233 14.0226C21.9684 15.0774 21.3758 16.5082 21.3758 18C21.3758 19.4919 21.9684 20.9226 23.0233 21.9775C24.0782 23.0324 25.5089 23.625 27.0008 23.625C25.0793 23.625 23.3198 24.3135 21.9563 25.4543C20.7365 24.6311 19.7378 23.5207 19.0481 22.2209C18.3583 20.921 17.9987 19.4715 18.0008 18Z" fill="#E22A1F"/>
</svg>
