<svg width="15" height="15" viewBox="0 0 15 15" fill="none" xmlns="http://www.w3.org/2000/svg">
<g opacity="0.8">
<path d="M10.9965 13.5001C10.4475 13.5001 9.67627 13.3016 8.52146 12.6564C7.11718 11.8689 6.03099 11.1418 4.6343 9.74882C3.28768 8.40304 2.63236 7.53172 1.71521 5.86279C0.679082 3.97841 0.855707 2.99066 1.05314 2.5685C1.28827 2.06394 1.63533 1.76216 2.08393 1.46263C2.33872 1.29569 2.60836 1.15258 2.88943 1.03513C2.91755 1.02304 2.94371 1.0115 2.96705 1.0011C3.10627 0.93838 3.31721 0.843598 3.58439 0.944848C3.76271 1.01179 3.92189 1.14875 4.17108 1.39485C4.68211 1.89885 5.38046 3.02132 5.63808 3.57257C5.81105 3.9441 5.92552 4.18935 5.9258 4.46441C5.9258 4.78644 5.7638 5.03479 5.56721 5.30282C5.53036 5.35316 5.4938 5.40125 5.45836 5.44794C5.24433 5.72919 5.19736 5.81047 5.2283 5.9556C5.29102 6.24725 5.75874 7.11547 6.52739 7.88244C7.29605 8.64941 8.13924 9.0876 8.43202 9.15003C8.58333 9.18238 8.6663 9.13344 8.95655 8.91182C8.99818 8.88004 9.04093 8.84713 9.08564 8.81422C9.38546 8.59119 9.62227 8.43341 9.93671 8.43341H9.93839C10.2121 8.43341 10.4463 8.5521 10.8345 8.74785C11.3407 9.00322 12.4969 9.69257 13.004 10.2042C13.2507 10.4528 13.3882 10.6114 13.4554 10.7894C13.5567 11.0575 13.4613 11.2676 13.3992 11.4082C13.3888 11.4315 13.3772 11.4571 13.3651 11.4855C13.2468 11.7661 13.1028 12.0352 12.9351 12.2893C12.6361 12.7365 12.3332 13.0828 11.8275 13.3182C11.5679 13.441 11.2837 13.5032 10.9965 13.5001Z" fill="white"/>
</g>
</svg>
