<svg width="64" height="64" viewBox="0 0 64 64" fill="none" xmlns="http://www.w3.org/2000/svg">
<path d="M50.6667 8H13.3333C10.3733 8 8 10.3733 8 13.3333V50.6667C8 53.6267 10.3733 56 13.3333 56H50.6667C53.6267 56 56 53.6267 56 50.6667V13.3333C56 10.3733 53.6267 8 50.6667 8ZM45.6 34.6667H34.6667V37.3333H45.3333C45.3333 37.3333 45.1733 45.3333 41.3333 45.3333C37.7333 45.3333 38.6667 41.2533 34.6667 40V45.3333C34.6667 46.8 33.4667 48 32 48C30.5333 48 29.3333 46.8 29.3333 45.3333V40C25.3333 41.2533 26.2667 45.3333 22.6667 45.3333C18.8267 45.3333 18.6667 37.3333 18.6667 37.3333H29.3333V34.6667H18.4C18.2667 33.84 18.24 32.9333 18.1333 32H29.3333V29.3333H18.16C18.2133 28.4533 18.4267 27.5467 18.6667 26.6667H29.3333V24H19.5733C20 23.0667 20.4 22.16 20.88 21.3333H29.3333V18.6667C29.3333 17.2 30.5333 16 32 16C33.4667 16 34.6667 17.2 34.6667 18.6667V21.3333H43.12C43.6 22.16 44 23.0667 44.4267 24H34.6667V26.6667H45.3333C45.6 27.5467 45.7867 28.4533 45.84 29.3333H34.6667V32H45.8667C45.76 32.9333 45.7333 33.84 45.6 34.6667Z" fill="#027FF7"/>
</svg>
