<svg width="64" height="64" viewBox="0 0 64 64" fill="none" xmlns="http://www.w3.org/2000/svg">
<path d="M33.5814 62.0212L33.5521 62.0266L33.3628 62.1199L33.3094 62.1306L33.2721 62.1199L33.0828 62.0266C33.0543 62.0177 33.033 62.0221 33.0188 62.0399L33.0081 62.0666L32.9628 63.2079L32.9761 63.2612L33.0028 63.2959L33.2801 63.4932L33.3201 63.5039L33.3521 63.4932L33.6294 63.2959L33.6614 63.2532L33.6721 63.2079L33.6268 62.0692C33.6196 62.0408 33.6045 62.0248 33.5814 62.0212ZM34.2881 61.7199L34.2534 61.7252L33.7601 61.9733L33.7334 61.9999L33.7254 62.0293L33.7734 63.1759L33.7868 63.2079L33.8081 63.2266L34.3441 63.4746C34.3779 63.4835 34.4036 63.4764 34.4214 63.4533L34.4321 63.4159L34.3414 61.7786C34.3325 61.7466 34.3148 61.727 34.2881 61.7199ZM32.3814 61.7252C32.3697 61.7181 32.3556 61.7158 32.3422 61.7188C32.3288 61.7218 32.3171 61.7298 32.3094 61.7413L32.2934 61.7786L32.2028 63.4159C32.2045 63.4479 32.2196 63.4693 32.2481 63.4799L32.2881 63.4746L32.8241 63.2266L32.8508 63.2053L32.8614 63.1759L32.9068 62.0293L32.8988 61.9973L32.8721 61.9706L32.3814 61.7252Z" fill="#027FF7"/>
<path d="M42.6667 8C44.7073 7.99989 46.6707 8.77953 48.1554 10.1794C49.6401 11.5793 50.5337 13.4936 50.6534 15.5307L50.6667 16V42.6667H52.6667C54.392 42.6667 55.8134 43.9787 55.984 45.6587L56 46V50.6667C56.0002 52.7072 55.2205 54.6707 53.8206 56.1554C52.4207 57.64 50.5064 58.5336 48.4694 58.6533L48 58.6667H21.3334C19.2928 58.6668 17.3293 57.8871 15.8447 56.4872C14.36 55.0874 13.4664 53.173 13.3467 51.136L13.3334 50.6667V24H8.66671C7.84149 24.0004 7.04546 23.6946 6.43267 23.1419C5.81987 22.5892 5.43388 21.8289 5.34937 21.008L5.33337 20.6667V16C5.33326 13.9594 6.11291 11.996 7.5128 10.5113C8.91269 9.02665 10.827 8.13305 12.864 8.01333L13.3334 8H42.6667ZM50.6667 48H26.6667V50.6667C26.6667 51.6 26.5067 52.4987 26.2134 53.3333H48C48.7073 53.3333 49.3856 53.0524 49.8857 52.5523C50.3858 52.0522 50.6667 51.3739 50.6667 50.6667V48ZM32 32H26.6667C25.987 32.0008 25.3333 32.261 24.8391 32.7276C24.3448 33.1942 24.0474 33.8319 24.0076 34.5104C23.9677 35.1889 24.1885 35.857 24.6247 36.3782C25.061 36.8994 25.6798 37.2344 26.3547 37.3147L26.6667 37.3333H32C32.6797 37.3326 33.3335 37.0723 33.8277 36.6057C34.3219 36.1392 34.6193 35.5015 34.6592 34.8229C34.699 34.1444 34.4782 33.4763 34.042 32.9551C33.6058 32.4339 32.987 32.0989 32.312 32.0187L32 32ZM37.3334 21.3333H26.6667C25.9595 21.3333 25.2812 21.6143 24.7811 22.1144C24.281 22.6145 24 23.2928 24 24C24 24.7072 24.281 25.3855 24.7811 25.8856C25.2812 26.3857 25.9595 26.6667 26.6667 26.6667H37.3334C38.0406 26.6667 38.7189 26.3857 39.219 25.8856C39.7191 25.3855 40 24.7072 40 24C40 23.2928 39.7191 22.6145 39.219 22.1144C38.7189 21.6143 38.0406 21.3333 37.3334 21.3333ZM13.3334 13.3333C12.6261 13.3333 11.9479 13.6143 11.4478 14.1144C10.9477 14.6145 10.6667 15.2928 10.6667 16V18.6667H13.3334V13.3333Z" fill="#027FF7"/>
</svg>
