<svg width="48" height="48" viewBox="0 0 48 48" fill="none" xmlns="http://www.w3.org/2000/svg">
<path d="M15.5002 5C15.5002 4.60218 15.3422 4.22064 15.0609 3.93934C14.7796 3.65804 14.398 3.5 14.0002 3.5C13.6024 3.5 13.2208 3.65804 12.9395 3.93934C12.6582 4.22064 12.5002 4.60218 12.5002 5V8.16C9.6202 8.39 7.7322 8.954 6.3442 10.344C4.9542 11.732 4.3902 13.622 4.1582 16.5H43.8422C43.6102 13.62 43.0462 11.732 41.6562 10.344C40.2682 8.954 38.3782 8.39 35.5002 8.158V5C35.5002 4.60218 35.3422 4.22064 35.0609 3.93934C34.7796 3.65804 34.398 3.5 34.0002 3.5C33.6024 3.5 33.2208 3.65804 32.9395 3.93934C32.6582 4.22064 32.5002 4.60218 32.5002 5V8.026C31.1702 8 29.6782 8 28.0002 8H20.0002C18.3222 8 16.8302 8 15.5002 8.026V5Z" fill="#027FF7"/>
<path fill-rule="evenodd" clip-rule="evenodd" d="M4 24C4 22.322 4 20.83 4.026 19.5H43.974C44 20.83 44 22.322 44 24V28C44 35.542 44 39.314 41.656 41.656C39.312 43.998 35.542 44 28 44H20C12.458 44 8.686 44 6.344 41.656C4.002 39.312 4 35.542 4 28V24ZM34 28C34.5304 28 35.0391 27.7893 35.4142 27.4142C35.7893 27.0391 36 26.5304 36 26C36 25.4696 35.7893 24.9609 35.4142 24.5858C35.0391 24.2107 34.5304 24 34 24C33.4696 24 32.9609 24.2107 32.5858 24.5858C32.2107 24.9609 32 25.4696 32 26C32 26.5304 32.2107 27.0391 32.5858 27.4142C32.9609 27.7893 33.4696 28 34 28ZM34 36C34.5304 36 35.0391 35.7893 35.4142 35.4142C35.7893 35.0391 36 34.5304 36 34C36 33.4696 35.7893 32.9609 35.4142 32.5858C35.0391 32.2107 34.5304 32 34 32C33.4696 32 32.9609 32.2107 32.5858 32.5858C32.2107 32.9609 32 33.4696 32 34C32 34.5304 32.2107 35.0391 32.5858 35.4142C32.9609 35.7893 33.4696 36 34 36ZM26 26C26 26.5304 25.7893 27.0391 25.4142 27.4142C25.0391 27.7893 24.5304 28 24 28C23.4696 28 22.9609 27.7893 22.5858 27.4142C22.2107 27.0391 22 26.5304 22 26C22 25.4696 22.2107 24.9609 22.5858 24.5858C22.9609 24.2107 23.4696 24 24 24C24.5304 24 25.0391 24.2107 25.4142 24.5858C25.7893 24.9609 26 25.4696 26 26ZM26 34C26 34.5304 25.7893 35.0391 25.4142 35.4142C25.0391 35.7893 24.5304 36 24 36C23.4696 36 22.9609 35.7893 22.5858 35.4142C22.2107 35.0391 22 34.5304 22 34C22 33.4696 22.2107 32.9609 22.5858 32.5858C22.9609 32.2107 23.4696 32 24 32C24.5304 32 25.0391 32.2107 25.4142 32.5858C25.7893 32.9609 26 33.4696 26 34ZM14 28C14.5304 28 15.0391 27.7893 15.4142 27.4142C15.7893 27.0391 16 26.5304 16 26C16 25.4696 15.7893 24.9609 15.4142 24.5858C15.0391 24.2107 14.5304 24 14 24C13.4696 24 12.9609 24.2107 12.5858 24.5858C12.2107 24.9609 12 25.4696 12 26C12 26.5304 12.2107 27.0391 12.5858 27.4142C12.9609 27.7893 13.4696 28 14 28ZM14 36C14.5304 36 15.0391 35.7893 15.4142 35.4142C15.7893 35.0391 16 34.5304 16 34C16 33.4696 15.7893 32.9609 15.4142 32.5858C15.0391 32.2107 14.5304 32 14 32C13.4696 32 12.9609 32.2107 12.5858 32.5858C12.2107 32.9609 12 33.4696 12 34C12 34.5304 12.2107 35.0391 12.5858 35.4142C12.9609 35.7893 13.4696 36 14 36Z" fill="#027FF7"/>
</svg>
